ExpData
version=1
nRows=25
nColumns=40
inDegrees=yes
Unit are S.I. units (second, meters, Newtons, ...
endheader
time	pelvis_tilt	pelvis_list	pelvis_rotation	pelvis_tx	pelvis_ty	pelvis_tz	hip_flexion_r	hip_adduction_r	hip_rotation_r	knee_angle_r	knee_angle_r_beta	ankle_angle_r	subtalar_angle_r	mtp_angle_r	hip_flexion_l	hip_adduction_l	hip_rotation_l	knee_angle_l	knee_angle_l_beta	ankle_angle_l	subtalar_angle_l	mtp_angle_l	lumbar_extension	lumbar_bending	lumbar_rotation	arm_flex_r	arm_add_r	arm_rot_r	elbow_flex_r	pro_sup_r	wrist_flex_r	wrist_dev_r	arm_flex_l	arm_add_l	arm_rot_l	elbow_flex_l	pro_sup_l	wrist_flex_l	wrist_dev_l	
0.000000	16.984712	-1.587888	2.377658	-0.860430	0.580379	0.264708	45.000000	-10.000000	0.000000	60.000000	1.047200	-5.000000	0.000000	0.000000	45.000000	-10.000000	0.000000	60.000000	1.047200	-5.000000	0.000000	0.000000	-27.068815	2.880866	1.747071	-2.315093	-32.913755	-18.086099	107.751188	88.377139	0.000000	0.000000	0.933751	-40.471875	-8.672992	103.529783	89.333671	0.000000	0.000000	
0.005000	16.998448	-1.586189	2.374067	-0.860409	0.580329	0.264705	45.000000	-10.000000	0.000000	60.000000	1.047200	-5.000000	0.000000	0.000000	45.000000	-10.000000	0.000000	60.000000	1.047200	-5.000000	0.000000	0.000000	-27.071819	2.879187	1.748443	-2.319544	-32.911739	-18.090833	107.754643	88.378187	0.000000	0.000000	0.936271	-40.472053	-8.670231	103.534608	89.333653	0.000000	0.000000	
0.010000	17.011659	-1.584480	2.370627	-0.860389	0.580280	0.264703	45.000000	-10.000000	0.000000	60.000000	1.047200	-5.000000	0.000000	0.000000	45.000000	-10.000000	0.000000	60.000000	1.047200	-5.000000	0.000000	0.000000	-27.075051	2.877590	1.749919	-2.324062	-32.909688	-18.095727	107.758252	88.379122	0.000000	0.000000	0.938783	-40.472218	-8.667592	103.539426	89.333649	0.000000	0.000000	
0.015000	17.024072	-1.582789	2.367433	-0.860371	0.580235	0.264701	45.000000	-10.000000	0.000000	60.000000	1.047200	-5.000000	0.000000	0.000000	45.000000	-10.000000	0.000000	60.000000	1.047200	-5.000000	0.000000	0.000000	-27.078450	2.876078	1.751488	-2.328631	-32.907649	-18.100719	107.761991	88.379917	0.000000	0.000000	0.941256	-40.472352	-8.665136	103.544171	89.333661	0.000000	0.000000	
0.020000	17.035515	-1.581139	2.364553	-0.860356	0.580194	0.264699	45.000000	-10.000000	0.000000	60.000000	1.047200	-5.000000	0.000000	0.000000	45.000000	-10.000000	0.000000	60.000000	1.047200	-5.000000	0.000000	0.000000	-27.081955	2.874661	1.753119	-2.333217	-32.905662	-18.105739	107.765827	88.380551	0.000000	0.000000	0.943645	-40.472436	-8.662933	103.548775	89.333694	0.000000	0.000000	
0.025000	17.045895	-1.579551	2.362020	-0.860342	0.580156	0.264697	45.000000	-10.000000	0.000000	60.000000	1.047200	-5.000000	0.000000	0.000000	45.000000	-10.000000	0.000000	60.000000	1.047200	-5.000000	0.000000	0.000000	-27.085516	2.873353	1.754773	-2.337759	-32.903758	-18.110704	107.769720	88.381013	0.000000	0.000000	0.945879	-40.472457	-8.661081	103.553193	89.333748	0.000000	0.000000	
0.030000	17.055181	-1.578044	2.359845	-0.860331	0.580124	0.264695	45.000000	-10.000000	0.000000	60.000000	1.047200	-5.000000	0.000000	0.000000	45.000000	-10.000000	0.000000	60.000000	1.047200	-5.000000	0.000000	0.000000	-27.089096	2.872166	1.756392	-2.342172	-32.901962	-18.115530	107.773621	88.381290	0.000000	0.000000	0.947871	-40.472405	-8.659686	103.557412	89.333825	0.000000	0.000000	
0.035000	17.063394	-1.576629	2.358028	-0.860322	0.580095	0.264694	45.000000	-10.000000	0.000000	60.000000	1.047200	-5.000000	0.000000	0.000000	45.000000	-10.000000	0.000000	60.000000	1.047200	-5.000000	0.000000	0.000000	-27.092653	2.871106	1.757906	-2.346364	-32.900301	-18.120126	107.777481	88.381376	0.000000	0.000000	0.949523	-40.472279	-8.658857	103.561444	89.333924	0.000000	0.000000	
0.040000	17.070577	-1.575312	2.356557	-0.860314	0.580071	0.264693	45.000000	-10.000000	0.000000	60.000000	1.047200	-5.000000	0.000000	0.000000	45.000000	-10.000000	0.000000	60.000000	1.047200	-5.000000	0.000000	0.000000	-27.096131	2.870164	1.759233	-2.350246	-32.898802	-18.124401	107.781253	88.381278	0.000000	0.000000	0.950739	-40.472083	-8.658686	103.565320	89.334041	0.000000	0.000000	
0.045000	17.076794	-1.574097	2.355408	-0.860309	0.580051	0.264692	45.000000	-10.000000	0.000000	60.000000	1.047200	-5.000000	0.000000	0.000000	45.000000	-10.000000	0.000000	60.000000	1.047200	-5.000000	0.000000	0.000000	-27.099470	2.869322	1.760284	-2.353736	-32.897489	-18.128257	107.784893	88.381018	0.000000	0.000000	0.951435	-40.471826	-8.659243	103.569077	89.334174	0.000000	0.000000	
0.050000	17.082124	-1.572988	2.354547	-0.860305	0.580034	0.264692	45.000000	-10.000000	0.000000	60.000000	1.047200	-5.000000	0.000000	0.000000	45.000000	-10.000000	0.000000	60.000000	1.047200	-5.000000	0.000000	0.000000	-27.102623	2.868566	1.760966	-2.356765	-32.896382	-18.131598	107.788359	88.380634	0.000000	0.000000	0.951547	-40.471516	-8.660566	103.572748	89.334316	0.000000	0.000000	
0.055000	17.086664	-1.571995	2.353936	-0.860303	0.580020	0.264692	45.000000	-10.000000	0.000000	60.000000	1.047200	-5.000000	0.000000	0.000000	45.000000	-10.000000	0.000000	60.000000	1.047200	-5.000000	0.000000	0.000000	-27.105576	2.867879	1.761197	-2.359277	-32.895500	-18.134343	107.791616	88.380178	0.000000	0.000000	0.951036	-40.471159	-8.662673	103.576358	89.334461	0.000000	0.000000	
0.060000	17.090510	-1.571127	2.353529	-0.860302	0.580010	0.264692	45.000000	-10.000000	0.000000	60.000000	1.047200	-5.000000	0.000000	0.000000	45.000000	-10.000000	0.000000	60.000000	1.047200	-5.000000	0.000000	0.000000	-27.108346	2.867253	1.760919	-2.361225	-32.894855	-18.136418	107.794633	88.379700	0.000000	0.000000	0.949885	-40.470763	-8.665568	103.579918	89.334604	0.000000	0.000000	
0.065000	17.093751	-1.570395	2.353279	-0.860303	0.580002	0.264693	45.000000	-10.000000	0.000000	60.000000	1.047200	-5.000000	0.000000	0.000000	45.000000	-10.000000	0.000000	60.000000	1.047200	-5.000000	0.000000	0.000000	-27.110988	2.866686	1.760113	-2.362567	-32.894457	-18.137764	107.797390	88.379246	0.000000	0.000000	0.948098	-40.470334	-8.669239	103.583422	89.334738	0.000000	0.000000	
0.070000	17.096465	-1.569803	2.353143	-0.860304	0.579996	0.264694	45.000000	-10.000000	0.000000	60.000000	1.047200	-5.000000	0.000000	0.000000	45.000000	-10.000000	0.000000	60.000000	1.047200	-5.000000	0.000000	0.000000	-27.113562	2.866185	1.758790	-2.363268	-32.894303	-18.138336	107.799873	88.378832	0.000000	0.000000	0.945684	-40.469877	-8.673681	103.586867	89.334860	0.000000	0.000000	
0.075000	17.098735	-1.569349	2.353084	-0.860307	0.579992	0.264695	45.000000	-10.000000	0.000000	60.000000	1.047200	-5.000000	0.000000	0.000000	45.000000	-10.000000	0.000000	60.000000	1.047200	-5.000000	0.000000	0.000000	-27.116110	2.865759	1.756982	-2.363313	-32.894379	-18.138115	107.802080	88.378435	0.000000	0.000000	0.942643	-40.469383	-8.678905	103.590264	89.334972	0.000000	0.000000	
0.080000	17.100641	-1.569017	2.353080	-0.860310	0.579989	0.264696	45.000000	-10.000000	0.000000	60.000000	1.047200	-5.000000	0.000000	0.000000	45.000000	-10.000000	0.000000	60.000000	1.047200	-5.000000	0.000000	0.000000	-27.118660	2.865432	1.754738	-2.362702	-32.894660	-18.137114	107.804019	88.378005	0.000000	0.000000	0.938976	-40.468839	-8.684917	103.593631	89.335079	0.000000	0.000000	
0.085000	17.102266	-1.568781	2.353117	-0.860314	0.579987	0.264697	45.000000	-10.000000	0.000000	60.000000	1.047200	-5.000000	0.000000	0.000000	45.000000	-10.000000	0.000000	60.000000	1.047200	-5.000000	0.000000	0.000000	-27.121256	2.865235	1.752117	-2.361454	-32.895127	-18.135369	107.805706	88.377490	0.000000	0.000000	0.934704	-40.468224	-8.691701	103.596990	89.335182	0.000000	0.000000	
0.090000	17.103681	-1.568615	2.353186	-0.860318	0.579987	0.264698	45.000000	-10.000000	0.000000	60.000000	1.047200	-5.000000	0.000000	0.000000	45.000000	-10.000000	0.000000	60.000000	1.047200	-5.000000	0.000000	0.000000	-27.123952	2.865200	1.749185	-2.359605	-32.895769	-18.132933	107.807169	88.376849	0.000000	0.000000	0.929869	-40.467517	-8.699213	103.600371	89.335285	0.000000	0.000000	
0.095000	17.104946	-1.568500	2.353274	-0.860322	0.579987	0.264700	45.000000	-10.000000	0.000000	60.000000	1.047200	-5.000000	0.000000	0.000000	45.000000	-10.000000	0.000000	60.000000	1.047200	-5.000000	0.000000	0.000000	-27.126798	2.865344	1.746006	-2.357202	-32.896587	-18.129866	107.808437	88.376051	0.000000	0.000000	0.924530	-40.466696	-8.707392	103.603809	89.335387	0.000000	0.000000	
0.100000	17.106098	-1.568422	2.353369	-0.860327	0.579987	0.264701	45.000000	-10.000000	0.000000	60.000000	1.047200	-5.000000	0.000000	0.000000	45.000000	-10.000000	0.000000	60.000000	1.047200	-5.000000	0.000000	0.000000	-27.129813	2.865652	1.742651	-2.354309	-32.897587	-18.126225	107.809548	88.375082	0.000000	0.000000	0.918746	-40.465753	-8.716166	103.607338	89.335491	0.000000	0.000000	
0.105000	17.107162	-1.568377	2.353454	-0.860332	0.579988	0.264702	45.000000	-10.000000	0.000000	60.000000	1.047200	-5.000000	0.000000	0.000000	45.000000	-10.000000	0.000000	60.000000	1.047200	-5.000000	0.000000	0.000000	-27.133000	2.866089	1.739185	-2.350996	-32.898777	-18.122070	107.810542	88.373949	0.000000	0.000000	0.912583	-40.464695	-8.725452	103.610980	89.335596	0.000000	0.000000	
0.110000	17.108148	-1.568361	2.353512	-0.860337	0.579989	0.264703	45.000000	-10.000000	0.000000	60.000000	1.047200	-5.000000	0.000000	0.000000	45.000000	-10.000000	0.000000	60.000000	1.047200	-5.000000	0.000000	0.000000	-27.136337	2.866605	1.735671	-2.347341	-32.900161	-18.117473	107.811454	88.372673	0.000000	0.000000	0.906106	-40.463535	-8.735154	103.614746	89.335701	0.000000	0.000000	
0.115000	17.109061	-1.568371	2.353532	-0.860342	0.579990	0.264705	45.000000	-10.000000	0.000000	60.000000	1.047200	-5.000000	0.000000	0.000000	45.000000	-10.000000	0.000000	60.000000	1.047200	-5.000000	0.000000	0.000000	-27.139773	2.867138	1.732163	-2.343430	-32.901735	-18.112518	107.812302	88.371284	0.000000	0.000000	0.899383	-40.462296	-8.745172	103.618637	89.335805	0.000000	0.000000	
0.120000	17.109898	-1.568398	2.353503	-0.860347	0.579991	0.264706	45.000000	-10.000000	0.000000	60.000000	1.047200	-5.000000	0.000000	0.000000	45.000000	-10.000000	0.000000	60.000000	1.047200	-5.000000	0.000000	0.000000	-27.143217	2.867614	1.728714	-2.339360	-32.903488	-18.107310	107.813091	88.369812	0.000000	0.000000	0.892484	-40.460996	-8.755403	103.622649	89.335906	0.000000	0.000000	
